<?xml version="1.0" encoding="UTF-8"?> <svg xmlns="http://www.w3.org/2000/svg" xmlns:xlink="http://www.w3.org/1999/xlink" version="1.1" id="Layer_1" x="0px" y="0px" viewBox="0 0 361.5 82.8" preserveAspectRatio="none" style="enable-background:new 0 0 361.5 82.8;"> <style type="text/css"> .st0{fill:#fdbc4a;} </style> <title>cm-button</title> <g id="Layer_2_1_"> <g id="Layer_1-2"> <path class="st0" d="M359.1,61.5c-0.2-0.4-0.2-0.9,0-1.3c1.5-1,1-2.2,0.4-3.4c-0.5-0.6-0.4-1.6,0.2-2.1c0,0,0,0,0,0 c0.9-1,1.2-2.6,1.8-3.8c-1.6-0.7-3-1.5-4.5-2c-0.9-0.4-1.8-0.7-2.8-0.7c-4.1,0.6-7.3-1-10.3-4.2c1.7-0.8,3-0.3,4.4-1 c-0.5-0.2-0.1-1.6-0.6-1.7c-1.1-0.2-2.8-0.2-3.8-0.4s-0.7-0.7,0-1.2c0.3-0.2,0.5-1,0.4-1.2c-2-1.7-0.9-2.2,0.9-2.8 c0.9-0.3,2.1-0.8,2.3-1.5c0.8-2.5,2.5-1.2,5.1-1.9c-0.1-0.9,0.1-1.5,0-2.1c-0.4-1.9-4.1-2-4.8-2.4c-1-0.6-1.3,0.2-2.2-0.7 c-1.6-1.7-4-2.5-6.4-2c-3.3,0.6-5.6-1.6-8.3-2.5c-1.3-0.4-1.7-3.1-0.8-3.3c2.6-0.3,4.3-2.9,7.2-2.6c1.5,0.1,3,0,4.4-0.4 c1.2-0.3,3.2-0.2,2.2-2.7c-0.3-0.8,0.9-1.6,2.1-1.1s1.6-0.2,1.4-1.2c-0.4-1.9-1.6-3.7-0.2-5.7c0.1-0.1-0.2-0.7-0.4-0.8 c-1.8-0.9-3.6-2.5-5.5-2.5c-10.2-0.2-20.4-0.3-30.7-1c-11.8-0.8-23.6-0.2-35.4-0.8c-10.7-0.6-21.6-0.9-32.4,0.4 c-5.2,0.6-10.5-0.2-15.8,0c-2.8,0.1-5.6-0.6-8.4-0.6C196.3,0.2,173.8,0,151.2,1c-7.5,0.4-15,0.1-22.5,0.1 c-8.8,0-17.7,0.3-26.5,0.1S84.7,1.9,75.9,1.4C67.4,1,58.9,1.6,50.3,1.8c-12,0.4-23.9,1-35.8,1.4c-2.3,0-4.5,0.5-6.6,1.5 C5.8,5.8,4.6,6,7.7,7.1c0.2,0.4,0.2,1,0,1.4C7,9.2,6.2,9.8,5.4,10.4c-2.1,1.7-2,3.1,0.3,4.5c0.9,0.6,1.8,1.1,2.9,1.8 C8,16.9,7.7,17,7.4,17.1c-1.2,0.4-3.2-0.4-3,2.1c0.1,1.9,0.3,3.4,2.6,3.7c0.5,0,1,0.1,1.5,0.2c0.5,0.4,0.9,0.8,1.2,1.3 c-0.3,0.3-0.7,0.6-1.1,0.8c-1.4,0.3-2.9,0.8-4.2,1.3c-1.4,0.7-1.2,3,0.2,3.7c1,0.5,2,0.9,3.1,1.4l-6.1,3l6.1,1.1 c-1.2,0.6-2.4,1.1-3.6,1.5c-1,0.2-2,0.1-3,0.3c-0.4,0.2-0.8,0.6-0.9,1c0,0.5,0.2,0.9,0.6,1.2c1.3,0.5,2.7,0.9,4.4,1.4 c-1.5,1.7-2.6,2.9-3.5,4.2C1.2,45.8,1,46.4,0.8,47c-0.5,1.4,1.4,2.8-0.3,4.5c-1.4,1.4,1.4,2.8,1.2,4.3c-0.2,3,1.2,4.5,3.7,5.6 c1.4,0.6,1,1.4-0.1,2.1c-0.2,0.2-0.2,0.5-0.2,0.8c2.2,1.6,2.3,5.5,6.1,5.7l-2.1,1.9c1.7,0.1,3.2,0.1,4.7,0.3 c0.2,0,0.6,1.1,0.4,1.5c-1,2.6-0.9,3,1.4,3.3c3.2,0.4,6.4,0.8,9.6,1.1v0.9l-9,1.4c2.8,0.4,5.5,1.1,8.3,1.3 c3.4,0.2,6.8,0.3,10.3-1.1c2.2-0.9,5.1-0.2,7.7-0.2c0.3,0,0.5,0.7,0.8,1.1c-0.5,0.2-0.9,0.3-1.3,0.5c-0.3,0.2-0.6,0.4-0.9,0.6h7.5 c-0.6-0.9-1-1.6-1.4-2.3c1.4,0.2,2.8,0.3,4.2,0.3c1.8-0.1,3.6-0.6,5.4-0.7c6.8-0.2,13.7,0,20.5-0.3c8.6-0.4,17.2-1.2,25.8-1.7 c5.2-0.3,10.3-0.4,15.5-0.2c5.3,0.3,10.5-1.3,15.8-0.1c0.7,0.1,1.3,0,2-0.1c2.3-0.2,4.6-0.6,6.9-0.7c5.5-0.1,11-0.1,16.5-0.1 c3,0,6,0.1,9-0.1c7.8-0.5,15.5-1.6,23.2-1.8c18.4-0.5,36.9-0.7,55.4-1c5-0.1,10-0.4,15.1-0.5c11.8-0.3,23.5-1.4,35.2-1.4 c10.2,0,20.3-0.5,30.5-0.1s18.9-3.4,28.2-5.8c0.8-0.2,1.5-0.7,2.1-1.2C359.4,64,361.6,63.3,359.1,61.5z"></path> </g> </g> </svg> 